<?xml version="1.0" encoding="UTF-8"?>
<svg width="24" height="24" viewBox="0 0 24 24" xmlns="http://www.w3.org/2000/svg" aria-hidden="true" role="img">
  <g fill="none" fill-rule="evenodd">
    <rect x="2" y="2" width="20" height="20" rx="6" fill="#252F3E"/>
    <path d="M6.9 9.7c0-1.7 1.1-2.9 2.7-2.9 1.2 0 2 .6 2.3 1.5l-1.1.4c-.2-.5-.6-.9-1.2-.9-.9 0-1.5.7-1.5 1.9 0 1.2.6 1.9 1.5 1.9.6 0 1-.3 1.2-.9l1.1.4c-.3.9-1.1 1.5-2.3 1.5-1.6 0-2.7-1.2-2.7-2.9zm6.3-2.7h1.3l1 3 1-3h1.3l-1.8 4.9h-1.1L13.2 7zm-5.4 7.9c2.9 1.7 6.5 1.4 9.9-.4.2-.1.4 0 .3.2-.6 1.2-3.8 2.6-6.6 2.6-2.5 0-4.3-.9-4.9-1.5-.2-.2-.1-.4.1-.3z" fill="#FF9900"/>
  </g>
</svg>
