<?xml version="1.0" encoding="UTF-8"?>
<svg width="24" height="24" viewBox="0 0 24 24" xmlns="http://www.w3.org/2000/svg" aria-hidden="true" role="img">
  <g fill="none" fill-rule="evenodd">
    <rect x="2" y="2" width="20" height="20" rx="6" fill="#1F2937"/>
    <g transform="translate(4,4)" fill="#F89820">
      <path d="M8.6 0c-1.1 1.1-.9 1.9.7 3 .9.7.5 1.3-.2 1.2-1.4-.2-2.1-.8-2.1-.8.3.6.2 1.5-.6 2.3 1.5-.5 2.7-.2 3.8.4 1.5.8 2.3 2 1.8 3.2-.6 1.6-3.1 2.3-6.2 2.2-2.4-.1-4.2-.8-4.2-1.7 0-.7 1.2-1.3 3.2-1.6-1.7-.2-3.2.1-3.2.1s.6-1 3.7-1.2c-1.8-.6-3.1-1.8-2.6-3 .6-1.6 3.8-2.2 6.5-1.1-.9-.7-1.3-1.5-.8-2.2.4-.5 1.1-.8 2-.8z"/>
      <path d="M3.2 12.8c1.8.7 5.7.7 7.5 0 .6-.2 1.1.3.5.7-1.5 1-6.9 1-8.4 0-.6-.4-.1-.9.4-.7z" fill="#FFFFFF" opacity=".5"/>
    </g>
  </g>
</svg>
